<svg width="24" height="24" viewBox="0 0 24 24" fill="none" xmlns="http://www.w3.org/2000/svg">
  <path
    d="M19.0273 1.63281H18.9356C15.9133 1.63281 13.4546 3.8989 13.4546 6.68445V12.7794C13.4546 13.7138 14.2794 14.4739 15.2932 14.4739H15.673V20.4442C15.673 20.8311 16.013 21.1444 16.4328 21.1444H19.0273C19.447 21.1444 19.787 20.8311 19.787 20.4442V2.33303C19.787 1.94616 19.447 1.63281 19.0273 1.63281ZM18.2675 19.744H17.1925V13.7737C17.1925 13.3869 16.8525 13.0735 16.4328 13.0735H15.2932C15.117 13.0735 14.9741 12.9413 14.9741 12.7794V6.68445C14.9741 4.88095 16.4 3.37855 18.2675 3.08533V19.744Z"
    fill="currentColor" />
  <path
    d="M10.4115 1.63281C9.9917 1.63281 9.65171 1.94616 9.65171 2.33303V7.37461H8.10754V2.33303C8.10754 1.94616 7.76756 1.63281 7.3478 1.63281C6.92805 1.63281 6.58806 1.94616 6.58806 2.33303V7.37461H5.04389V2.33303C5.04389 1.94616 4.70391 1.63281 4.28415 1.63281C3.8644 1.63281 3.52441 1.94616 3.52441 2.33303V8.07483V9.43806C3.52441 10.6289 4.20011 11.6998 5.28559 12.2897L4.79081 19.1133C4.7438 19.7632 4.99356 20.4087 5.47647 20.8845C5.95938 21.3602 6.64125 21.6328 7.34828 21.6328C8.05484 21.6328 8.73718 21.3602 9.22009 20.8845C9.703 20.4087 9.95276 19.7632 9.90575 19.1133L9.41097 12.2901C10.4964 11.7002 11.1721 10.6293 11.1721 9.4385V8.07483V2.33303C11.1712 1.94616 10.8307 1.63281 10.4115 1.63281ZM9.65171 9.43806C9.65171 10.2284 9.13604 10.9273 8.33831 11.2184C8.03109 11.3304 7.83784 11.6122 7.86015 11.916L8.38912 19.2061C8.40859 19.4744 8.30935 19.7304 8.10992 19.9269C7.91049 20.1234 7.63983 20.2315 7.3478 20.2315C7.05578 20.2315 6.78512 20.1234 6.58569 19.9269C6.38626 19.7304 6.28702 19.4744 6.30649 19.2057L6.83545 11.9155C6.8573 11.6118 6.66404 11.33 6.35729 11.2179C5.55957 10.9269 5.04389 10.228 5.04389 9.43763V8.77504H9.65171V9.43806Z"
    fill="currentColor" />
</svg>