<svg width="20" height="19" viewBox="0 0 20 19" fill="none" xmlns="http://www.w3.org/2000/svg">
<path d="M2.83557 15.6107H12.764" stroke="#155E75" stroke-width="0.791667" stroke-linecap="round" stroke-linejoin="round"/>
<path d="M2.34638 10.4011L4.94571 12.8356C5.29231 13.1606 5.73451 13.365 6.20656 13.4184C6.67861 13.4719 7.1553 13.3715 7.56573 13.1322L18.0044 7.06317L16.722 5.49075C16.3884 5.08321 15.9201 4.80845 15.4016 4.71612C14.8832 4.62379 14.3489 4.71998 13.8951 4.9873L10.8339 6.78731L6.69699 5.40799L5.55935 5.89765C5.47424 5.93413 5.39968 5.99146 5.34254 6.06435C5.28541 6.13724 5.24754 6.22335 5.23243 6.31473C5.21732 6.40611 5.22545 6.49983 5.25608 6.58724C5.2867 6.67465 5.33883 6.75294 5.40766 6.81489L7.52436 8.71835L5.59382 9.82181L3.66329 8.99421L2.50496 9.49077C2.42069 9.52698 2.34678 9.58364 2.28991 9.65561C2.23304 9.72759 2.19501 9.81262 2.17927 9.903C2.16352 9.99338 2.17056 10.0863 2.19974 10.1732C2.22892 10.2602 2.27932 10.3385 2.34638 10.4011Z" stroke="#155E75" stroke-width="0.791667" stroke-linecap="round" stroke-linejoin="round"/>
</svg>
