<svg width="20" height="20" viewBox="0 0 20 20" fill="none" xmlns="http://www.w3.org/2000/svg">
<path d="M6.24522 10.3823C6.72158 10.3823 7.18724 10.2483 7.58331 9.99714C7.97939 9.74598 8.28809 9.389 8.47039 8.97134C8.65268 8.55368 8.70038 8.0941 8.60744 7.65071C8.51451 7.20733 8.28512 6.80005 7.94829 6.48039C7.61145 6.16073 7.1823 5.94303 6.7151 5.85484C6.24789 5.76664 5.76363 5.81191 5.32353 5.98491C4.88343 6.15791 4.50728 6.45087 4.24263 6.82676C3.97798 7.20264 3.83672 7.64456 3.83672 8.09663C3.83672 8.70284 4.09047 9.28422 4.54216 9.71288C4.99384 10.1415 5.60645 10.3823 6.24522 10.3823ZM6.24522 7.33473C6.40401 7.33473 6.55923 7.37941 6.69125 7.46313C6.82328 7.54685 6.92618 7.66585 6.98694 7.80506C7.04771 7.94428 7.06361 8.09748 7.03263 8.24527C7.00165 8.39307 6.92519 8.52883 6.81291 8.63538C6.70063 8.74194 6.55758 8.8145 6.40185 8.8439C6.24611 8.8733 6.08469 8.85821 5.93799 8.80054C5.79129 8.74288 5.66591 8.64522 5.57769 8.51993C5.48947 8.39463 5.44239 8.24732 5.44239 8.09663C5.44239 7.89456 5.52697 7.70077 5.67753 7.55789C5.82809 7.415 6.0323 7.33473 6.24522 7.33473ZM16.6821 5.81092H10.2594C10.0465 5.81092 9.84226 5.89119 9.6917 6.03408C9.54114 6.17696 9.45656 6.37075 9.45656 6.57282V11.1443H3.03389V5.04901C3.03389 4.84694 2.94931 4.65315 2.79874 4.51027C2.64818 4.36738 2.44398 4.28711 2.23106 4.28711C2.01813 4.28711 1.81393 4.36738 1.66337 4.51027C1.51281 4.65315 1.42822 4.84694 1.42822 5.04901V14.9538C1.42822 15.1558 1.51281 15.3496 1.66337 15.4925C1.81393 15.6354 2.01813 15.7157 2.23106 15.7157C2.44398 15.7157 2.64818 15.6354 2.79874 15.4925C2.94931 15.3496 3.03389 15.1558 3.03389 14.9538V12.6681H17.4849V14.9538C17.4849 15.1558 17.5695 15.3496 17.72 15.4925C17.8706 15.6354 18.0748 15.7157 18.2877 15.7157C18.5006 15.7157 18.7049 15.6354 18.8554 15.4925C19.006 15.3496 19.0906 15.1558 19.0906 14.9538V8.09663C19.0906 7.49042 18.8368 6.90904 18.3851 6.48039C17.9334 6.05173 17.3208 5.81092 16.6821 5.81092ZM17.4849 11.1443H11.0622V7.33473H16.6821C16.895 7.33473 17.0992 7.415 17.2497 7.55789C17.4003 7.70077 17.4849 7.89456 17.4849 8.09663V11.1443Z" fill="#155E75"/>
</svg>
