<svg width="21" height="21" viewBox="0 0 21 21" fill="none" xmlns="http://www.w3.org/2000/svg">
  <path
    d="M16.3561 1.86066H16.2797C13.7611 1.86066 11.7122 3.74906 11.7122 6.07036V11.1495C11.7122 11.9281 12.3995 12.5616 13.2443 12.5616H13.5609V17.5368C13.5609 17.8592 13.8442 18.1203 14.194 18.1203H16.3561C16.7059 18.1203 16.9892 17.8592 16.9892 17.5368V2.44417C16.9892 2.12178 16.7059 1.86066 16.3561 1.86066ZM15.723 16.9533H14.8271V11.9781C14.8271 11.6557 14.5438 11.3946 14.194 11.3946H13.2443C13.0975 11.3946 12.9784 11.2844 12.9784 11.1495V6.07036C12.9784 4.56744 14.1667 3.31543 15.723 3.07109V16.9533Z"
    fill="#155E75" />
  <path
    d="M9.17621 1.86066C8.82642 1.86066 8.5431 2.12178 8.5431 2.44417V6.64549H7.25629V2.44417C7.25629 2.12178 6.97297 1.86066 6.62317 1.86066C6.27337 1.86066 5.99005 2.12178 5.99005 2.44417V6.64549H4.70324V2.44417C4.70324 2.12178 4.41992 1.86066 4.07013 1.86066C3.72033 1.86066 3.43701 2.12178 3.43701 2.44417V7.229V8.36503C3.43701 9.35737 4.00009 10.2498 4.90465 10.7414L4.49234 16.4278C4.45316 16.9693 4.6613 17.5073 5.06373 17.9037C5.46615 18.3001 6.03437 18.5273 6.62357 18.5273C7.21236 18.5273 7.78098 18.3001 8.18341 17.9037C8.58583 17.5073 8.79397 16.9693 8.75479 16.4278L8.34248 10.7418C9.24704 10.2502 9.81012 9.35774 9.81012 8.3654V7.229V2.44417C9.80933 2.12178 9.52561 1.86066 9.17621 1.86066ZM8.5431 8.36503C8.5431 9.02368 8.11337 9.6061 7.4486 9.84862C7.19258 9.94198 7.03153 10.1768 7.05013 10.4299L7.49094 16.5051C7.50716 16.7286 7.42446 16.942 7.25826 17.1057C7.09207 17.2695 6.86652 17.3596 6.62317 17.3596C6.37982 17.3596 6.15427 17.2695 5.98808 17.1057C5.82188 16.942 5.73918 16.7286 5.7554 16.5047L6.19621 10.4296C6.21441 10.1765 6.05336 9.94162 5.79774 9.84826C5.13297 9.60573 4.70324 9.02331 4.70324 8.36467V7.81252H8.5431V8.36503Z"
    fill="#155E75" />
</svg>